PathFileType	4	(X/Y/Z)	KinectSkeleton.trc																																																	
DataRate	CameraRate	NumFrames	NumMarkers	Units	OrigDataRate	OrigDataStartFrame	OrigNumFrames																																													
60	60	20	17	mm	60	372	300																																													
Frame#	Time	Neck			ShoulderMid			R.Shoulder			L.Shoulder			R.Elbow			L.Elbow			R.Wrist			L.Wrist			HipCenter			R.Hip			L.Hip			R.Knee			L.Knee			R.Ankle			L.Ankle			R.Foot			L.Foot		
		X1	Y1	Z1	X2	Y2	Z2	X3	Y3	Z3	X4	Y4	Z4	X5	Y5	Z5	X6	Y6	Z6	X7	Y7	Z7	X8	Y8	Z8	X9	Y9	Z9	X10	Y10	Z10	X11	Y11	Z11	X12	Y12	Z12	X13	Y13	Z13	X14	Y14	Z14	X15	Y15	Z15	X16	Y16	Z16	X17	Y17	Z17
																																																				
372	18.337	-816.55	1106.46	603.673	-816.55	1106.46	603.673	-797.135	1061.349	750.852	-819.978	1044.634	451.766	-639.229	842.945	768.507	-633.571	857.826	426.902	-499.86	666.551	753.728	-467.713	709.563	424.723	-1259.988	866.892	652.654	-1251.915	866.241	731.106	-1268.941	867.613	565.653	-1141.33	499.465	750.86	-1161.785	498.992	555.788	-1162.813	129.761	770.588	-1147.236	132.341	562.018	-1026.736	35.948	774.685	-989.814	48.417	540.415
373	18.384	-817.351	1105.848	604.249	-817.351	1105.848	604.249	-795.889	1065.673	753.639	-821.015	1044.671	451.117	-639.439	843.632	771.714	-632.775	856.553	427.523	-500.262	665.039	754.456	-465.111	707.677	424.792	-1266.787	867.151	653.866	-1260.548	867.783	733.111	-1273.706	866.451	565.985	-1168.472	492.863	754.073	-1202.628	486.08	557.562	-1179.554	119.367	763.859	-1163.56	118.27	553.9	-1042.065	26.207	777.533	-1000.233	44.167	528.648
374	18.429	-821.383	1105.814	604.397	-821.383	1105.814	604.397	-799.178	1067.813	755.455	-823.476	1044.086	449.545	-638.036	845.18	768.336	-630.03	857.085	426.687	-498.308	663.587	755.226	-459.674	707.671	422.513	-1276.574	864.441	649.03	-1271.95	865.882	729.227	-1281.701	862.844	560.095	-1169.37	489.606	753.496	-1180.311	485.126	551.562	-1195.346	112.864	763.987	-1164.953	111.613	555.64	-1065.151	7.107	779.166	-1008.847	17.432	539.191
375	18.473	-821.383	1105.814	604.397	-821.383	1105.814	604.397	-799.178	1067.813	755.455	-823.476	1044.086	449.545	-638.036	845.18	768.336	-630.03	857.085	426.687	-498.308	663.587	755.226	-459.674	707.671	422.513	-1276.574	864.441	649.03	-1271.95	865.882	729.227	-1281.701	862.844	560.095	-1169.37	489.606	753.496	-1180.311	485.126	551.562	-1195.346	112.864	763.987	-1164.953	111.613	555.64	-1065.151	7.107	779.166	-1008.847	17.432	539.191
376	18.523	-821.393	1105.841	604.409	-821.393	1105.841	604.409	-799.193	1067.85	755.472	-823.48	1044.11	449.557	-638.01	845.244	768.374	-630.026	857.112	426.708	-498.251	663.672	755.275	-459.666	707.701	422.538	-1276.584	864.456	649.037	-1271.961	865.896	729.234	-1281.711	862.858	560.101	-1169.295	489.64	753.481	-1180.039	485.212	551.552	-1195.119	112.883	763.951	-1164.452	111.706	555.63	-1064.868	7.192	779.126	-1008.266	17.672	539.08
377	18.568	-802.948	1105.686	609.735	-802.948	1105.686	609.735	-796.453	1077.796	771.097	-826.615	1047.438	444.623	-633.606	848.047	762.378	-626.717	857.158	427.473	-497.001	657.056	752.636	-454.794	701.522	418.472	-1280.437	875.594	654.142	-1275.083	878.554	736.187	-1286.373	872.312	563.156	-1156.735	496.956	758.493	-1156.45	493.767	546.128	-1204.28	113.134	767.527	-1168.994	111.311	557.611	-1062.005	18.046	789.01	-1005.891	22.876	530.855
378	18.613	-826.222	1101.514	602.066	-826.222	1101.514	602.066	-800.235	1080.78	757.213	-829.953	1042.561	443.5	-639.98	851.214	763.015	-625.222	859.732	429.709	-505.32	660.365	760.503	-452.209	707.437	420.774	-1303.633	882.151	657.402	-1297.562	885.134	738.894	-1310.365	878.842	567.03	-1195.271	500.839	744.476	-1189.464	499.5	567.798	-1252.295	120.589	745.956	-1173.798	119.747	585.809	-1118.28	14.51	759.055	-1013.141	37.628	539.35
379	18.66	-826.162	1101.511	602.066	-826.162	1101.511	602.066	-800.174	1080.771	757.221	-829.895	1042.565	443.488	-639.933	851.177	763.026	-625.153	859.729	429.677	-505.285	660.306	760.509	-452.134	707.425	420.715	-1303.603	882.149	657.4	-1297.531	885.13	738.896	-1310.335	878.843	567.023	-1194.737	500.969	745.751	-1188.4	499.81	566.361	-1250.309	120.492	748.715	-1170.438	120.055	582.499	-1115.881	14.939	761.939	-1009.107	39.147	536.213
380	18.706	-823.995	1102.9	603.829	-823.995	1102.9	603.829	-798.368	1081.8	759.426	-827.743	1043.613	444.821	-639.823	850.187	765.48	-624.162	858.423	431.507	-506.207	657.914	760.989	-451.604	704.645	424.034	-1302.637	882.787	658.205	-1296.673	885.687	739.918	-1309.25	879.571	567.588	-1217.855	494.93	749.081	-1194.835	497.306	556.953	-1243.067	110.281	752.318	-1163.713	117.119	560.538	-1104.666	9.326	766.018	-998.337	33.582	536.818
381	18.753	-760.424	1102.367	610.106	-760.424	1102.367	610.106	-794.734	1063.255	777.392	-819.572	1046.169	442.803	-611.349	842.968	770.45	-621.078	847.328	427.222	-450.642	666.914	751.042	-443.301	691.853	427.066	-1254.161	891.175	655.176	-1250.419	897.975	738.54	-1258.31	883.634	562.728	-1179.746	497.418	757.987	-1134.087	495.678	547.419	-1252.004	110.514	766.357	-1162.94	107.523	564.138	-1108.221	10.659	778.97	-997.518	17.172	534.781
382	18.799	-760.448	1102.326	610.091	-760.448	1102.326	610.091	-794.754	1063.208	777.372	-819.629	1046.156	442.794	-611.426	842.887	770.416	-621.186	847.282	427.16	-450.77	666.795	751.009	-443.462	691.757	426.925	-1254.175	891.161	655.172	-1250.432	897.959	738.533	-1258.326	883.623	562.727	-1179.241	497.51	758.055	-1133.844	495.783	546.931	-1250.246	110.39	766.549	-1161.97	107.56	563.024	-1106.136	11.042	779.363	-996.21	17.85	533.646
383	18.842	-760.448	1102.326	610.091	-760.448	1102.326	610.091	-794.754	1063.208	777.372	-819.629	1046.156	442.794	-611.426	842.887	770.416	-621.186	847.282	427.16	-450.77	666.795	751.009	-443.462	691.757	426.925	-1254.175	891.161	655.172	-1250.432	897.959	738.533	-1258.326	883.623	562.727	-1179.241	497.51	758.055	-1133.844	495.783	546.931	-1250.246	110.39	766.549	-1161.97	107.56	563.024	-1106.136	11.042	779.363	-996.21	17.85	533.646
384	18.889	-760.167	1102.421	610.76	-760.167	1102.421	610.76	-793.383	1062.269	777.36	-819.05	1046.742	444.185	-608.112	844.853	769.724	-622.3	847.508	428.562	-451.295	665.626	759.67	-444.197	693.622	429.959	-1251.317	890.437	652.247	-1244.425	889.562	735.4	-1258.96	891.407	560.033	-1162.459	492.742	758.255	-1158.807	497.844	548.236	-1193.609	101.814	770.581	-1147.686	109.752	552.658	-1043.196	13.469	783.542	-973.782	39.39	521.801
385	18.938	-704.006	1088.427	613.229	-704.006	1088.427	613.229	-770.181	1042.185	765.265	-800.105	1045.869	463.967	-592.535	835.077	773.653	-626.812	844.166	431.32	-427.912	678.426	759.05	-453.968	700.351	434.019	-1163.279	873.592	651.835	-1157.063	872.632	731.303	-1170.172	874.657	563.708	-1102.779	489.805	759.924	-1070.815	500.378	537.438	-1176.56	122.685	776.711	-1132.152	134.552	536.051	-1040.953	25.285	783.711	-983.411	30.598	528.395
386	18.984	-694.872	1086.349	613.805	-694.872	1086.349	613.805	-765.145	1041.626	764.79	-797.668	1048.224	466.784	-589.633	832.75	773.661	-627.431	844.499	430.907	-421.949	679.771	755.595	-453.233	702.353	433.753	-1154.591	875.085	652.749	-1148.5	875.331	732.227	-1161.347	874.813	564.611	-1059.489	498.711	755.432	-1059.87	500.288	556.77	-1135.803	131.814	762.276	-1090.127	130.851	570.008	-997.732	38.609	775.346	-928.06	52.385	546.299
387	19.028	-724.113	1092.489	607.312	-724.113	1092.489	607.312	-767.137	1038.067	759.74	-806.72	1044.278	458.889	-590.3	836.658	773.279	-634.957	846.398	432.219	-422.121	689.676	758.297	-461.895	708.869	433.941	-1165.066	869.782	656.943	-1157.691	867.917	734.94	-1173.246	871.85	570.448	-1022.225	512.381	757.727	-1029.669	518.416	562.796	-1097.364	151.634	758.543	-1093.013	159.986	584.913	-964.414	55.146	759.884	-950.136	61.126	543.753
388	19.074	-738.886	1100.528	606.499	-738.886	1100.528	606.499	-773.351	1040.676	758.131	-810.485	1044.366	457.079	-597.475	838.385	774.704	-635.798	848.528	432.446	-428.645	692.245	756.615	-466.433	706.208	433.49	-1175.887	867.276	652.991	-1168.585	863.901	731.003	-1183.984	871.019	566.479	-1026.144	510.231	742.082	-998.974	537.832	542.696	-1103.182	149.616	738.795	-1061.341	178.402	552.315	-972.361	50.263	732.251	-917.004	76.036	527.466
389	19.121	-779.334	1116.137	607.572	-779.334	1116.137	607.572	-787.124	1049.901	756.434	-817.503	1046.137	456.464	-610.53	847.426	774.328	-637.756	854.088	431.111	-446.233	695.154	757.971	-469.986	709.012	430.31	-1209.482	859.037	650.534	-1202.418	855.657	728.771	-1217.316	862.785	563.771	-1059.167	501.719	750.087	-1050.318	518.577	549.786	-1103.272	134.653	753.456	-1047.734	152.734	553.644	-973.527	32.996	753.895	-893.759	65.373	526.177
390	19.167	-705.389	1094.101	615.863	-705.389	1094.101	615.863	-776.655	1050.846	767.26	-802.782	1052.108	466.138	-606.311	837.109	778.847	-638.652	842.549	431.092	-442.503	678.57	768.69	-466.253	697.549	425.563	-1164.425	875.162	648.364	-1159.324	874.989	728.084	-1170.081	875.355	559.957	-1055.011	501.142	745.71	-1038.176	509.543	552.096	-1128.406	132.76	745.644	-1059	138.82	569.418	-989.46	39.787	755.256	-896.039	62.019	543.481
391	19.213	-701.862	1094.219	616.773	-701.862	1094.219	616.773	-776.389	1053.484	771.391	-806.338	1056.156	465.568	-604.549	833.687	778.059	-643.044	839.586	427.475	-432.824	677.818	757.858	-467.019	691.778	423.711	-1169.256	873.432	654.214	-1162.669	873.304	735.441	-1176.562	873.574	564.135	-1025.244	502.333	759.916	-1025.358	506.834	555.064	-1106.245	127.811	763.616	-1057.629	129.533	575.105	-957.976	44.495	779.725	-884.329	65.512	556.505
